<svg width="84" height="10" viewBox="0 0 84 10" fill="none" xmlns="http://www.w3.org/2000/svg">
<path d="M1.992 9.18C1.528 9.18 1.136 9.048 0.816 8.784C0.504 8.52 0.348 8.14 0.348 7.644C0.348 7.268 0.54 6.924 0.924 6.612C1.308 6.292 1.912 6.052 2.736 5.892C2.864 5.868 3.008 5.844 3.168 5.82C3.328 5.788 3.496 5.756 3.672 5.724V4.776C3.672 4.232 3.604 3.852 3.468 3.636C3.34 3.412 3.136 3.3 2.856 3.3C2.664 3.3 2.512 3.364 2.4 3.492C2.288 3.612 2.216 3.824 2.184 4.128L2.16 4.26C2.144 4.604 2.06 4.856 1.908 5.016C1.756 5.176 1.568 5.256 1.344 5.256C1.136 5.256 0.964 5.192 0.828 5.064C0.692 4.936 0.624 4.764 0.624 4.548C0.624 4.22 0.736 3.944 0.96 3.72C1.192 3.496 1.496 3.328 1.872 3.216C2.248 3.104 2.656 3.048 3.096 3.048C3.808 3.048 4.356 3.224 4.74 3.576C5.132 3.92 5.328 4.484 5.328 5.268V7.92C5.328 8.28 5.496 8.46 5.832 8.46H6.096L6.204 8.556C6.052 8.748 5.884 8.896 5.7 9C5.524 9.104 5.272 9.156 4.944 9.156C4.592 9.156 4.312 9.076 4.104 8.916C3.904 8.748 3.772 8.528 3.708 8.256C3.468 8.512 3.22 8.732 2.964 8.916C2.716 9.092 2.392 9.18 1.992 9.18ZM2.724 8.448C2.884 8.448 3.032 8.412 3.168 8.34C3.312 8.26 3.48 8.14 3.672 7.98V5.964C3.592 5.98 3.512 5.996 3.432 6.012C3.352 6.028 3.26 6.044 3.156 6.06C2.788 6.156 2.492 6.32 2.268 6.552C2.052 6.776 1.944 7.08 1.944 7.464C1.944 7.792 2.02 8.04 2.172 8.208C2.324 8.368 2.508 8.448 2.724 8.448ZM6.4275 9V8.88L6.5955 8.832C6.8755 8.752 7.0155 8.556 7.0155 8.244V4.488C7.0155 4.312 6.9875 4.184 6.9315 4.104C6.8755 4.016 6.7675 3.956 6.6075 3.924L6.4275 3.876V3.756L8.4795 3.06L8.5995 3.18L8.6955 3.9C8.9755 3.652 9.2915 3.448 9.6435 3.288C9.9955 3.128 10.3435 3.048 10.6875 3.048C11.2155 3.048 11.6195 3.192 11.8995 3.48C12.1875 3.768 12.3315 4.208 12.3315 4.8V8.256C12.3315 8.568 12.4835 8.764 12.7875 8.844L12.8955 8.88V9H10.0635V8.88L10.2195 8.832C10.4995 8.744 10.6395 8.548 10.6395 8.244V4.416C10.6395 3.904 10.3835 3.648 9.8715 3.648C9.5195 3.648 9.1355 3.824 8.7195 4.176V8.256C8.7195 8.568 8.8595 8.764 9.1395 8.844L9.2475 8.88V9H6.4275ZM15.909 9.18C15.437 9.18 15.013 9.076 14.637 8.868C14.261 8.652 13.961 8.324 13.737 7.884C13.521 7.436 13.413 6.864 13.413 6.168C13.413 5.464 13.537 4.884 13.785 4.428C14.033 3.964 14.361 3.62 14.769 3.396C15.177 3.164 15.621 3.048 16.101 3.048C16.381 3.048 16.649 3.076 16.905 3.132C17.161 3.188 17.389 3.272 17.589 3.384V1.824C17.589 1.656 17.561 1.532 17.505 1.452C17.457 1.372 17.349 1.316 17.181 1.284L16.953 1.236V1.116L19.137 0.588L19.269 0.696L19.221 2.376V8.244C19.221 8.404 19.249 8.536 19.305 8.64C19.361 8.736 19.465 8.804 19.617 8.844L19.725 8.88V9L17.673 9.132L17.565 8.7C17.349 8.844 17.101 8.96 16.821 9.048C16.549 9.136 16.245 9.18 15.909 9.18ZM16.605 8.736C16.941 8.736 17.249 8.636 17.529 8.436V3.672C17.233 3.48 16.929 3.384 16.617 3.384C16.233 3.384 15.905 3.608 15.633 4.056C15.361 4.496 15.225 5.192 15.225 6.144C15.225 7.096 15.353 7.768 15.609 8.16C15.865 8.544 16.197 8.736 16.605 8.736ZM20.2556 9V8.88L20.4356 8.832C20.5956 8.784 20.7036 8.712 20.7596 8.616C20.8236 8.52 20.8556 8.396 20.8556 8.244V4.488C20.8556 4.312 20.8236 4.184 20.7596 4.104C20.7036 4.016 20.5956 3.956 20.4356 3.924L20.2556 3.876V3.756L22.3196 3.06L22.4396 3.18L22.5476 4.212V4.308C22.6596 4.084 22.8036 3.88 22.9796 3.696C23.1636 3.504 23.3636 3.348 23.5796 3.228C23.8036 3.108 24.0236 3.048 24.2396 3.048C24.5436 3.048 24.7756 3.132 24.9356 3.3C25.0956 3.468 25.1756 3.68 25.1756 3.936C25.1756 4.208 25.0956 4.42 24.9356 4.572C24.7836 4.716 24.5996 4.788 24.3836 4.788C24.0476 4.788 23.7516 4.62 23.4956 4.284L23.4716 4.26C23.3916 4.148 23.2996 4.088 23.1956 4.08C23.0916 4.064 22.9956 4.112 22.9076 4.224C22.8276 4.296 22.7596 4.384 22.7036 4.488C22.6556 4.584 22.6076 4.696 22.5596 4.824V8.172C22.5596 8.492 22.6996 8.692 22.9796 8.772L23.3636 8.88V9H20.2556ZM28.401 9.18C27.793 9.18 27.265 9.056 26.817 8.808C26.369 8.552 26.021 8.192 25.773 7.728C25.533 7.264 25.413 6.72 25.413 6.096C25.413 5.472 25.541 4.932 25.797 4.476C26.061 4.02 26.417 3.668 26.865 3.42C27.321 3.172 27.833 3.048 28.401 3.048C28.969 3.048 29.477 3.172 29.925 3.42C30.373 3.66 30.725 4.008 30.981 4.464C31.245 4.92 31.377 5.464 31.377 6.096C31.377 6.728 31.253 7.276 31.005 7.74C30.765 8.196 30.421 8.552 29.973 8.808C29.533 9.056 29.009 9.18 28.401 9.18ZM28.401 8.94C28.681 8.94 28.905 8.86 29.073 8.7C29.241 8.54 29.361 8.256 29.433 7.848C29.513 7.44 29.553 6.864 29.553 6.12C29.553 5.368 29.513 4.788 29.433 4.38C29.361 3.972 29.241 3.688 29.073 3.528C28.905 3.368 28.681 3.288 28.401 3.288C28.121 3.288 27.893 3.368 27.717 3.528C27.549 3.688 27.425 3.972 27.345 4.38C27.273 4.788 27.237 5.368 27.237 6.12C27.237 6.864 27.273 7.44 27.345 7.848C27.425 8.256 27.549 8.54 27.717 8.7C27.893 8.86 28.121 8.94 28.401 8.94ZM31.9041 9V8.88L32.0721 8.832C32.2241 8.792 32.3281 8.724 32.3841 8.628C32.4481 8.532 32.4841 8.404 32.4921 8.244V4.488C32.4921 4.312 32.4641 4.184 32.4081 4.104C32.3521 4.016 32.2441 3.956 32.0841 3.924L31.9041 3.876V3.756L33.9561 3.06L34.0761 3.18L34.1721 3.996C34.4361 3.732 34.7361 3.508 35.0721 3.324C35.4161 3.14 35.7721 3.048 36.1401 3.048C36.5241 3.048 36.8321 3.128 37.0641 3.288C37.2961 3.44 37.4721 3.68 37.5921 4.008C37.9041 3.712 38.2401 3.48 38.6001 3.312C38.9681 3.136 39.3241 3.048 39.6681 3.048C40.2361 3.048 40.6521 3.184 40.9161 3.456C41.1881 3.728 41.3241 4.156 41.3241 4.74V8.256C41.3241 8.568 41.4681 8.764 41.7561 8.844L41.8881 8.88V9H39.1161V8.88L39.2361 8.844C39.3881 8.796 39.4921 8.724 39.5481 8.628C39.6121 8.532 39.6441 8.404 39.6441 8.244V4.572C39.6441 4.236 39.5841 4.008 39.4641 3.888C39.3441 3.76 39.1521 3.696 38.8881 3.696C38.6801 3.696 38.4761 3.744 38.2761 3.84C38.0841 3.928 37.8801 4.064 37.6641 4.248C37.7041 4.376 37.7281 4.516 37.7361 4.668C37.7521 4.82 37.7601 4.98 37.7601 5.148V8.256C37.7681 8.568 37.9121 8.764 38.1921 8.844L38.3001 8.88V9H35.5161V8.88L35.6841 8.832C35.8361 8.784 35.9401 8.716 35.9961 8.628C36.0601 8.532 36.0921 8.404 36.0921 8.244V4.584C36.0921 4.264 36.0321 4.036 35.9121 3.9C35.8001 3.764 35.6041 3.696 35.3241 3.696C35.1401 3.696 34.9561 3.744 34.7721 3.84C34.5881 3.928 34.3961 4.06 34.1961 4.236V8.256C34.1961 8.568 34.3361 8.764 34.6161 8.844L34.7241 8.88V9H31.9041ZM45.3692 3.048C45.8892 3.048 46.3332 3.156 46.7012 3.372C47.0692 3.58 47.3492 3.868 47.5412 4.236C47.7412 4.596 47.8412 5.008 47.8412 5.472C47.8412 5.56 47.8372 5.652 47.8292 5.748C47.8212 5.836 47.8052 5.916 47.7812 5.988H44.2052C44.2132 6.852 44.3652 7.476 44.6612 7.86C44.9652 8.236 45.4132 8.424 46.0052 8.424C46.4052 8.424 46.7292 8.36 46.9772 8.232C47.2252 8.104 47.4572 7.916 47.6732 7.668L47.7932 7.776C47.5452 8.216 47.2132 8.56 46.7972 8.808C46.3892 9.056 45.8972 9.18 45.3212 9.18C44.7532 9.18 44.2492 9.06 43.8092 8.82C43.3692 8.572 43.0252 8.22 42.7772 7.764C42.5292 7.308 42.4052 6.764 42.4052 6.132C42.4052 5.476 42.5492 4.92 42.8372 4.464C43.1252 4 43.4932 3.648 43.9412 3.408C44.3972 3.168 44.8732 3.048 45.3692 3.048ZM45.3332 3.288C45.1012 3.288 44.9012 3.36 44.7332 3.504C44.5732 3.64 44.4452 3.888 44.3492 4.248C44.2612 4.6 44.2132 5.1 44.2052 5.748H46.2572C46.3372 4.876 46.3052 4.248 46.1612 3.864C46.0172 3.48 45.7412 3.288 45.3332 3.288ZM50.9832 9.18C50.5112 9.18 50.0872 9.076 49.7112 8.868C49.3352 8.652 49.0352 8.324 48.8112 7.884C48.5952 7.436 48.4872 6.864 48.4872 6.168C48.4872 5.464 48.6112 4.884 48.8592 4.428C49.1072 3.964 49.4352 3.62 49.8432 3.396C50.2512 3.164 50.6952 3.048 51.1752 3.048C51.4552 3.048 51.7232 3.076 51.9792 3.132C52.2352 3.188 52.4632 3.272 52.6632 3.384V1.824C52.6632 1.656 52.6352 1.532 52.5792 1.452C52.5312 1.372 52.4232 1.316 52.2552 1.284L52.0272 1.236V1.116L54.2112 0.588L54.3432 0.696L54.2952 2.376V8.244C54.2952 8.404 54.3232 8.536 54.3792 8.64C54.4352 8.736 54.5392 8.804 54.6912 8.844L54.7992 8.88V9L52.7472 9.132L52.6392 8.7C52.4232 8.844 52.1752 8.96 51.8952 9.048C51.6232 9.136 51.3192 9.18 50.9832 9.18ZM51.6792 8.736C52.0152 8.736 52.3232 8.636 52.6032 8.436V3.672C52.3072 3.48 52.0032 3.384 51.6912 3.384C51.3072 3.384 50.9792 3.608 50.7072 4.056C50.4352 4.496 50.2992 5.192 50.2992 6.144C50.2992 7.096 50.4272 7.768 50.6832 8.16C50.9392 8.544 51.2712 8.736 51.6792 8.736ZM56.9647 9.18C56.5007 9.18 56.1087 9.048 55.7887 8.784C55.4767 8.52 55.3207 8.14 55.3207 7.644C55.3207 7.268 55.5127 6.924 55.8967 6.612C56.2807 6.292 56.8847 6.052 57.7087 5.892C57.8367 5.868 57.9807 5.844 58.1407 5.82C58.3007 5.788 58.4687 5.756 58.6447 5.724V4.776C58.6447 4.232 58.5767 3.852 58.4407 3.636C58.3127 3.412 58.1087 3.3 57.8287 3.3C57.6367 3.3 57.4847 3.364 57.3727 3.492C57.2607 3.612 57.1887 3.824 57.1567 4.128L57.1327 4.26C57.1167 4.604 57.0327 4.856 56.8807 5.016C56.7287 5.176 56.5407 5.256 56.3167 5.256C56.1087 5.256 55.9367 5.192 55.8007 5.064C55.6647 4.936 55.5967 4.764 55.5967 4.548C55.5967 4.22 55.7087 3.944 55.9327 3.72C56.1647 3.496 56.4687 3.328 56.8447 3.216C57.2207 3.104 57.6287 3.048 58.0687 3.048C58.7807 3.048 59.3287 3.224 59.7127 3.576C60.1047 3.92 60.3007 4.484 60.3007 5.268V7.92C60.3007 8.28 60.4687 8.46 60.8047 8.46H61.0687L61.1767 8.556C61.0247 8.748 60.8567 8.896 60.6727 9C60.4967 9.104 60.2447 9.156 59.9167 9.156C59.5647 9.156 59.2847 9.076 59.0767 8.916C58.8767 8.748 58.7447 8.528 58.6807 8.256C58.4407 8.512 58.1927 8.732 57.9367 8.916C57.6887 9.092 57.3647 9.18 56.9647 9.18ZM57.6967 8.448C57.8567 8.448 58.0047 8.412 58.1407 8.34C58.2847 8.26 58.4527 8.14 58.6447 7.98V5.964C58.5647 5.98 58.4847 5.996 58.4047 6.012C58.3247 6.028 58.2327 6.044 58.1287 6.06C57.7607 6.156 57.4647 6.32 57.2407 6.552C57.0247 6.776 56.9167 7.08 56.9167 7.464C56.9167 7.792 56.9927 8.04 57.1447 8.208C57.2967 8.368 57.4807 8.448 57.6967 8.448ZM62.9836 9.18C62.6956 9.18 62.4516 9.08 62.2516 8.88C62.0516 8.68 61.9516 8.44 61.9516 8.16C61.9516 7.88 62.0516 7.636 62.2516 7.428C62.4516 7.22 62.6956 7.116 62.9836 7.116C63.2716 7.116 63.5156 7.22 63.7156 7.428C63.9156 7.636 64.0156 7.88 64.0156 8.16C64.0156 8.44 63.9156 8.68 63.7156 8.88C63.5156 9.08 63.2716 9.18 62.9836 9.18ZM65.0213 9V8.88L65.2013 8.832C65.3613 8.784 65.4693 8.712 65.5253 8.616C65.5893 8.52 65.6213 8.396 65.6213 8.244V4.488C65.6213 4.312 65.5893 4.184 65.5253 4.104C65.4693 4.016 65.3613 3.956 65.2013 3.924L65.0213 3.876V3.756L67.0853 3.06L67.2053 3.18L67.3133 4.212V4.308C67.4253 4.084 67.5693 3.88 67.7453 3.696C67.9293 3.504 68.1293 3.348 68.3453 3.228C68.5693 3.108 68.7893 3.048 69.0053 3.048C69.3093 3.048 69.5413 3.132 69.7013 3.3C69.8613 3.468 69.9413 3.68 69.9413 3.936C69.9413 4.208 69.8613 4.42 69.7013 4.572C69.5493 4.716 69.3653 4.788 69.1493 4.788C68.8133 4.788 68.5173 4.62 68.2613 4.284L68.2373 4.26C68.1573 4.148 68.0653 4.088 67.9613 4.08C67.8573 4.064 67.7613 4.112 67.6733 4.224C67.5933 4.296 67.5253 4.384 67.4693 4.488C67.4213 4.584 67.3733 4.696 67.3253 4.824V8.172C67.3253 8.492 67.4653 8.692 67.7453 8.772L68.1293 8.88V9H65.0213ZM72.4901 9.18C72.1781 9.18 71.8901 9.12 71.6261 9C71.3701 8.88 71.1661 8.688 71.0141 8.424C70.8701 8.152 70.8021 7.796 70.8101 7.356L70.8461 4.272C70.8461 4.088 70.8141 3.956 70.7501 3.876C70.6861 3.796 70.5861 3.74 70.4501 3.708L70.3061 3.66V3.54L72.4541 3.12L72.5741 3.24L72.5141 4.944V7.836C72.5141 8.092 72.5861 8.28 72.7301 8.4C72.8821 8.52 73.0701 8.58 73.2941 8.58C73.5181 8.58 73.7181 8.548 73.8941 8.484C74.0701 8.42 74.2461 8.324 74.4221 8.196L74.4701 4.284C74.4701 4.1 74.4421 3.972 74.3861 3.9C74.3301 3.82 74.2261 3.764 74.0741 3.732L73.9541 3.696V3.576L76.0541 3.12L76.1741 3.24L76.1381 4.944V8.196C76.1381 8.372 76.1621 8.508 76.2101 8.604C76.2581 8.7 76.3621 8.78 76.5221 8.844L76.6421 8.88V9L74.5421 9.12L74.4341 8.412C74.1701 8.628 73.8821 8.812 73.5701 8.964C73.2661 9.108 72.9061 9.18 72.4901 9.18ZM77.1267 9V8.88L77.2947 8.832C77.5747 8.752 77.7147 8.556 77.7147 8.244V4.488C77.7147 4.312 77.6867 4.184 77.6307 4.104C77.5747 4.016 77.4667 3.956 77.3067 3.924L77.1267 3.876V3.756L79.1787 3.06L79.2987 3.18L79.3947 3.9C79.6747 3.652 79.9907 3.448 80.3427 3.288C80.6947 3.128 81.0427 3.048 81.3867 3.048C81.9147 3.048 82.3187 3.192 82.5987 3.48C82.8867 3.768 83.0307 4.208 83.0307 4.8V8.256C83.0307 8.568 83.1827 8.764 83.4867 8.844L83.5947 8.88V9H80.7627V8.88L80.9187 8.832C81.1987 8.744 81.3387 8.548 81.3387 8.244V4.416C81.3387 3.904 81.0827 3.648 80.5707 3.648C80.2187 3.648 79.8347 3.824 79.4187 4.176V8.256C79.4187 8.568 79.5587 8.764 79.8387 8.844L79.9467 8.88V9H77.1267Z" fill="white"/>
</svg>
